<?xml version="1.0" encoding="UTF-8"?>
<svg id="Layer_3" xmlns="http://www.w3.org/2000/svg" xmlns:xlink="http://www.w3.org/1999/xlink" version="1.1" viewBox="0 0 500 400">
  <!-- Generator: Adobe Illustrator 29.2.1, SVG Export Plug-In . SVG Version: 2.1.0 Build 116)  -->
  <defs>
    <style>
      .st0 {
        fill: url(#linear-gradient);
      }
    </style>
    <linearGradient id="linear-gradient" x1="-385.217" y1="113.221" x2="-85.217" y2="386.643" gradientTransform="rotate(-180) scale(1 -1)" gradientUnits="userSpaceOnUse">
      <stop offset="0" stop-color="#5d3fff"/>
      <stop offset="1" stop-color="#ff0010"/>
    </linearGradient>
  </defs>
  <g>
    <path d="M192.854,27.452c55.975-6.873,118.176,11.649,170.225,32.04,19.498,7.639,71.382,27.897,78.524,47.512,14.825,40.712-19.559,36.926-42.538,52.309,15.034,3.422,59.4-12.796,62.324-28.216,9.308-49.083-31.915-52.658-62.313-72.59,6.798-1.114,13.007,6.591,18.464,7.413,7.569,1.14,77.084-26.603,80.362-35.083C507.683,5.53,481.125-1.088,462.43.139c-35.725,2.345-91.235,35.138-123.198,36.935-9.479.533-47.148-12.25-60.922-14.813-22.355-4.161-72.531-17.482-85.455,5.19Z"/>
    <rect x="123.147" y="337.813" width="32.165" height="31.031" transform="translate(278.458 706.657) rotate(-180)"/>
    <rect x="123.147" y="302.852" width="32.165" height="31.031" transform="translate(278.458 636.734) rotate(-180)"/>
    <rect x="159.485" y="337.813" width="32.165" height="31.031" transform="translate(351.134 706.657) rotate(-180)"/>
    <rect x="159.485" y="302.852" width="32.165" height="31.031" transform="translate(351.134 636.734) rotate(-180)"/>
  </g>
  <path class="st0" d="M260.946,329.877c17.678,15.388,30.943,35.908,47.253,52.414,13.509,13.671,21.238,15.147,40.791,14.572,47.071-1.385,70.393-15.991,89.817-72.405l9.307-41.896c-42.086,41.481-72.031,70.932-112.452,21.152-52.064-64.119,20.667-129.176,71.216-159.749,5.909-3.574,18.202-5.361,22.291-12.089,5.606-9.224-.218-35.529-11.404-34.775-47.227,21.285-102.521,47.597-127.492,96.068,13.347-56.158,75.918-79.267,122.025-101.854-10.742-3.663-31.633-20.301-47.884-19.808-10.995,5.969-20.139,9.997-26.681,12.574-.845.333-1.374-.928-.565-1.345,8.927-4.607,20.267-10.998,20.267-13.74,0-6.647-44.324-17.51-48.783-18.812-15.467-4.517-54.561-15.857-68.607-13.297-7.716,1.406-14.31,8.993-22.603,8.841l17.016-11.593c-36.374-9.436-63.767,9.354-93.287,27.508C60.715,111.124-39.316,201.108,15.897,307.605c3.123,6.024,16.608,30.029,23.699,26.142l118.496-117.182,61.229,61.917v-29.091h41.625v80.486Z"/>
</svg>