 
<svg   xmlns="http://www.w3.org/2000/svg"   viewBox="0 0 600 600">
 
  <defs>
    <style>
      .st0 {
        fill: url(#linear-gradient);
      }

      .st1 {
        fill: #fff;
      }
    </style>
    <linearGradient id="linear-gradient" x1=".5" y1="300" x2="401.72" y2="300" gradientUnits="userSpaceOnUse">
      <stop offset=".579" stop-color="#fff"/>
      <stop offset="1" stop-color="#fff" stop-opacity="0"/>
    </linearGradient>
  </defs>
  <path class="st0" d="M.5,599.5V.5h299.242c2.133,3.011,26.681,38.089,50.924,90.519,23.29,50.371,51.054,127.515,51.054,208.981s-27.769,158.626-51.063,209.002c-24.243,52.426-48.782,87.488-50.914,90.498H.5Z"/>
  <path class="st1" d="M299.483,1c2.926,4.153,26.979,38.861,50.738,90.25,14.809,32.03,26.608,64.178,35.068,95.549,10.57,39.195,15.93,77.281,15.93,113.201s-5.36,74.006-15.93,113.201c-8.461,31.372-20.259,63.519-35.068,95.549-23.759,51.388-47.813,86.097-50.738,90.25H1V1h298.483M300,0H0v600h300s102.22-142.103,102.22-300S300,0,300,0h0Z"/>
</svg>