<?xml version="1.0" encoding="UTF-8"?>
<svg id="Layer_1" xmlns="http://www.w3.org/2000/svg" version="1.1" viewBox="0 0 512 512">
  <!-- Generator: Adobe Illustrator 29.2.1, SVG Export Plug-In . SVG Version: 2.1.0 Build 116)  -->
  <g id="kYVJ1m">
    <g>
      <path d="M262.01,25.51c65.301,1.179,132.214,4.135,197.803,7.024,15.468.681,27.94-5.187,37.035,9.421,12.332,19.808,14.144,55.97-6.769,70.835,2.961-13.533-6.281-23.288-7.096-35.842-.952-14.664,6.218-24.157,5.668-38.086-.067-1.709,1.068-5.233-1.383-4.896-5.786,13.724-10.696,27.799-9.921,42.986.677,13.259,6.4,25.238,11.311,37.245h-241.429c-1.75,0-9.56-15.263-11.959-12.662,4.134,14.285-4.886,22.881,11.26,30.254l120.153,36.107c4.196,3.231,8.082,7.326,10.383,12.141,1.704,3.566,6.011,18.774,6.011,22.144v51.383l14.072.009c1.018.909-8.706,21.237-8.403,25.946.316,4.917,7.311,12.65,8.33,18.469l12.863,159.038c.968,4.944-12.607,8.632-16.459,9.03-7.456.769-15.509-3.096-23.059-2.75l-2.885-164.046c-.598-6.651,5.899-13.407,5.611-19.536-.342-7.276-8.089-17.454-8.39-25.437l10.38-.926,1.957-1.845c-2.879-5.428.186-10.604.338-15.563.403-13.177-.526-35.417-4.29-47.768-2.294-7.527-5.164-13.315-12.576-16.987-35.681-13.756-78.235-19.409-113.39-33.016-25.212-9.758-15.915-27.016-17.566-48.598-.565-7.381-3.956-16.363-3.906-23.952.099-14.756,7.762-27.34,13.783-40.124,7.485.098,15.04-.135,22.524,0Z"/>
      <path d="M218.377,77.603v4.211l-73.973-.052c-27.109,3.583-57.78,1.992-84.011,10.308-4.998,1.584-10.292,3.092-13.741,7.347-.012,2.551,26.668,6.922,30.472,7.509,47.061,7.268,96.748,7.433,144.054,3.042,2.754,14.875-3.073,26.264,12.818,34.354l99.664,29.14.255,283.287c-27.861,14.992-62.317,21.293-93.743,24.853-60.299,6.832-139.921,7.738-199.193-4.897-6.329-1.349-27.241-6.17-31.54-9.285-2.198-1.593-2.027-2.26-2.311-4.727-2.437-21.18-.202-53.752.02-76.155.314-31.563,2.491-64.044,2.932-95.611.794-56.871-2.147-118.417,1.291-174.677.352-5.759,1.885-11.724,2.158-17.55,4.266-8.984,59.293-15.738,70.407-16.874,44.588-4.557,89.648-4.261,134.44-4.225Z"/>
    </g>
  </g>
</svg>