<?xml version="1.0" encoding="UTF-8"?>
<svg id="Layer_1" xmlns="http://www.w3.org/2000/svg" version="1.1" viewBox="0 0 500 500">
  <!-- Generator: Adobe Illustrator 29.2.1, SVG Export Plug-In . SVG Version: 2.1.0 Build 116)  -->
  <g id="ncs5yT">
    <g>
      <path d="M339.233,328.106c-3.922,2.999-12.11,11.661-14.914,15.679-10.489,15.031,4.527,29.292-1.342,40.646-2.887,5.585-24.16,13.852-30.182,12.499-7.033-1.58-10.482-13.575-14.76-18.836-11.9-14.637-25.112-3.84-38.086-12.3-15.305-9.981-9.66-33.219,8.308-35.688,10.901-1.498,16.94.547,28.735-3.656,70.082-24.973,68.358-127.637-1.572-149.686-14.284-4.504-39.257-3.226-34.534-26.787,3.899-19.45,22.481-11.67,32.982-20.998,7.448-6.616,8.73-22.032,20.161-23.073,4.454-.406,25.438,8.395,27.769,12.483,5.764,10.11-8.885,26.11,1.323,40.667,2.508,3.577,18.885,19.377,22.456,20.733,14.132,5.366,26.664-5.587,36.315-1.523,5.647,2.378,14.033,23.853,13.177,29.876-1.508,10.615-22.409,11.92-26.615,26.222-1.648,5.605-1.618,22.776-.939,29.059,2.166,20.033,23.158,17.398,27.303,29.144,2.394,6.785-6.399,30.717-13.759,32.377-15.088,3.404-22.39-11.7-41.826,3.164Z"/>
      <path d="M243.729,95.186c10.995-.294,20.975,7.705,13.414,18.268-5.356,7.484-15.301,4.586-23.056,5.736-64.369,9.54-105.863,79.919-81.527,140.845,13.929,34.872,33.242,65.549,43.064,103.296,1.509,5.799,4.328,29.297,7.521,30.869,6.306,3.103,36.912-1.195,47.128.859,11.669,2.346,12.402,19.753,1.223,22.264-6.67,1.498-42.385,1.155-50.031.151-24.636-3.236-22.987-26.857-27.181-44.799-9.514-40.698-32.036-71.886-44.852-108.707-27.218-78.2,30.839-166.552,114.297-168.782Z"/>
      <path d="M216.858,283.906c-9.971-8.159-16.222,2.485-21.158-5.83-7.849-13.223,5.082-11.705,7.759-17.962,1.289-3.014,1.316-9.055.926-12.323-1.341-11.219-20.533-9.299-6.011-25.216,10.424.576,16.249,2.789,22.788-7.137,6.363-9.659-7.615-18.403,9.547-21.716,8.99-1.736,6.269,6.806,12.347,9.407,3.972,1.7,14.284,1.752,17.769-.819,6.068-4.477,2.202-11.062,12.901-8.25,13.122,3.448,4.048,10.754,6.466,18.727.381,1.256,6.193,7.098,7.546,8.042,8.507,5.932,19.042-4.947,21.929,9.277,2.075,10.225-7.312,7.343-9.905,13.541-1.505,3.595-1.283,13.621,1.097,16.847,5.322,7.215,14.773,3.904,5.528,19.76-5.249,3.55-13.617-6.439-22.838,5.964-8.173,10.995,5.546,22.729-14.451,24.089-4.27-1.179-4.739-8.532-9.861-10.592-3.056-1.229-7.88-1.316-11.118-.93-11.319,1.349-8.64,19.611-25.185,7.245-3.6-5.903,6.802-11.588-6.076-22.125ZM228.785,274.386c29.233,29.24,75.361-14.884,45.802-45.202-29.693-30.455-75.239,15.758-45.802,45.202Z"/>
      <path d="M190.843,437.048l116.12-.305c12.136,1.249,15.539,15.666,5.058,21.91l-121.387.843c-12.604-3.276-11.737-19.11.208-22.449Z"/>
      <path d="M219.612,476.613h60.677c11.31,3.281,10.652,20.633-1.015,22.472-17.356,2.736-41.565-1.686-59.662-.185-10.978-3.994-10.978-18.293,0-22.287Z"/>
      <path d="M94.329,55.61c4.221-4.221,9.639-2.595,13.978.345,5.505,3.731,28.676,27.17,33.101,32.882,8.965,11.572-.634,22.954-11.372,16.167-3.722-2.352-32.613-31.246-35.492-35.286-3.019-4.236-4.249-10.074-.215-14.108Z"/>
      <path d="M405.572,55.611c4.784,4.775,2.666,10.233-.836,14.686-9.494,12.07-25.198,23.421-35.567,35.207-12.1,4.35-18.627-5.191-11.039-15.829,4.969-6.966,24.617-26.465,31.551-32.033,4.691-3.767,10.621-7.292,15.892-2.03Z"/>
      <path d="M247.223.325c6.671-1.455,11.567,2.062,12.351,8.735,1.107,9.425,1.323,41.35-.095,50.344-1.863,11.821-17.661,11.506-19.154-1.104-1.117-9.435-1.312-41.308.098-50.343.554-3.549,3.204-6.848,6.799-7.632Z"/>
      <path d="M409.164,201.891c11.439,1.42,48.635-3.531,56.659,1.613,6.717,4.306,4.65,15.861-4.197,17.258-6.765,1.068-46.397,1.178-52.466-.184-9.658-2.168-9.166-16.034.004-18.686Z"/>
      <path d="M37.305,201.932c11.399,1.328,48.635-3.546,56.618,1.572,6.717,4.306,4.65,15.861-4.197,17.258-6.765,1.068-46.396,1.178-52.466-.184-9.781-2.196-9.038-15.766.045-18.645Z"/>
    </g>
  </g>
</svg>