<?xml version="1.0" encoding="UTF-8"?>
<svg id="Layer_1" xmlns="http://www.w3.org/2000/svg" version="1.1" viewBox="0 0 500 500">
  <!-- Generator: Adobe Illustrator 29.2.1, SVG Export Plug-In . SVG Version: 2.1.0 Build 116)  -->
  <g id="bkWQ89">
    <g>
      <path d="M247.768,498.884l-37.168-26.162-46.188,10.263-28.365-36.441-46.466-5.984-14.266-46.016-40.771-20.646c-2.1-14.617,8.955-49.565-7.811-56.874-5.978-2.606-14.967,2.015-13.339-5.639h43.527c66.288,184.1,319.9,184.062,386.161,0h43.527c1.628,7.654-7.36,3.032-13.339,5.639-17.233,7.512-5.006,42.147-7.845,56.881l-40.741,20.634-14.289,45.998c-12.369,3.223-35.821.949-46.496,5.95-6.379,2.989-25.751,36.306-28.411,36.906l-46.086-10.671-37.168,26.162h-4.464Z"/>
      <path d="M252.232,1.116l37.168,26.162,46.095-10.677,28.374,36.941,46.524,5.922,14.293,45.993,40.771,20.646c2.088,14.526-8.93,49.696,7.811,56.874,5.746,2.464,14.875-1.986,13.317,5.636l-44.703-1.03C384.06,22.523,160.85-.66,73.288,153.645c-3.824,6.739-11.536,30.022-14.127,32.75-2.007,2.112-36.352,2.899-42.366,2.282-4.211-.433-3.706.51-3.398-4.513,33.589,3.187,20.254-35.42,20.404-56.538l41.512-22.169,14.293-45.993,46.496-5.951,28.365-36.525,46.132,10.29L247.768,1.116h4.464Z"/>
      <path d="M0,309.152v-118.304h496.652l3.348,3.348v111.607l-3.348,3.348H0ZM84.821,266.741v-50.223c-4.554-5.208-15.535-5.208-20.089,0v64.732l3.348,3.348h46.875l3.348-17.857h-33.482ZM153.415,213.688c-42.636,8.932-33.16,83.95,22.519,69.389,41.262-10.791,29.678-80.323-22.519-69.389ZM281.25,228.749c-21.833-31.879-71.256-13.545-66.78,25.487,3.593,31.324,50.094,42.982,65.744,14.715-13.443-15.28-14.882-3.896-24.816-2.236-33.428,5.584-23.917-55.887,11.331-29.721l14.52-8.245ZM366.059,284.585c-5.047-11.118-21.904-63.773-27.823-69.249-4.098-3.791-13.869-2.754-19.077-1.078l-28.969,70.327c15.697.991,18.137-.177,26.022-13.016l22.037-.535c5.693-.514,5.586,11.398,8.102,13.337.781.601,16.634-.983,19.707.213ZM399.554,266.741v-50.223c-4.554-5.208-15.535-5.208-20.089,0v68.08h50.223l3.348-17.857h-33.482Z"/>
      <path d="M437.5,311.384c-58.446,179.539-316.554,179.549-375,0h375ZM348.214,315.848h-196.429c44.598,70.232,151.838,70.224,196.429,0ZM345.986,367.2c-.216,7.64,10.48,8.587,15.518,12.431l5.685-3.454-5.612-20.144c-6.746,5.169-3.68,13.519-15.591,11.167ZM153.995,367.239l-16.229-6.438c-16.295,4.508,2.817,40.181,16.229,6.438ZM169.364,378.631l-12.011-6.922c-5.388,7.809-5.841,11.042,1.128,17.776-2.882,2.484-11.288-10.348-11.144-1.12l11.982,7.653,10.044-17.387ZM337.054,389.533c5.788-.572,11.306,5.391,15.567-1.127-4.956-5.789-6.514-16.268-15.556-14.509l4.452,8.891c-5.792.57-11.315-5.391-15.576,1.137,6.574,4.899,6.457,16.746,15.565,14.499l-4.451-8.891ZM179.141,402.484c-3.469-5.405,8.593-12.504.546-17.39l-7.686,12.307-6.847-.054,12.772,9.637,5.101-2.977-3.886-1.522ZM323.625,385.047c-25.532,3.301-17.128,33.149,5.754,17.946l-5.754-17.946ZM193.664,392.407c-1.54-.883-5.718-1.784-6.121.405l2.554,17.538,5.19,3.711,14.534-17.831c-11.962,4.571-11.494-1.147-16.157-3.822ZM218.795,405.113l-6.735-6.658c3.748,7.68-2.393,7.962-4.401,14.267l17.773,8.047,2.233-20.088-8.87,4.432ZM280.62,398.825c-10.74,3.191-7.722,23.768,7.927,19.298,14.1-4.028,6.225-23.503-7.927-19.298ZM247.617,403.043l-15.45,1.012,11.161,4.427-11.173,1.129,8.941,5.567-8.943,5.545,15.612,2.276-.148-19.956ZM267.824,400.681c-7.071-1.742-2.994,4.104-4.898,6.075-1.668,1.726-7.992,1.158-9.699,5.001-5.18,9.479,9.68,12.628,16.588,8.735l-1.991-19.811Z"/>
      <path d="M437.49,188.601l-375.025-1.135c60.257-178.507,316.359-178.187,375.025,1.135ZM241.059,77.022l-6.763,6.638-13.314-4.394,12.276,20.016,7.8-22.26ZM264.824,77.633c-12.857,1.308-11.19,23.331,3.626,21.299,12.956-1.778,11.871-22.875-3.626-21.299ZM287.97,92.634l-4.464-13.392-.012,22.31c8.29,2.255,6.285-4.791,11.117-6.667l5.578,11.122,12.31-17.812-11.135,6.66c.497-3.452-.235-12.391-5.579-11.146l-7.815,8.926ZM212.037,81.481l-6.102,3.262,4.051,16.642c12.523,2.059,26.296-7.411,4.544-6.778l-2.493-13.126ZM191.927,88.18l-4.504,3.369,4.567,16.717,15.593-4.501c-1.514-7.495-9.634-1.353-11.006-2.232l-4.65-13.352ZM323.617,92.638l-6.411.23-6.927,17.61,11.136-4.464c-.263,5.007-.265,11.856,6.675,11.167l6.737-16.684-4.505-2.327-4.4,5.608-2.306-11.139ZM189.732,110.467c-1.86-3.861-5.786-7.213-9.15-9.795-2.052-1.575-7.76-7.395-9.862-3.614l-1.053,22.36c8.517-3.245,8.746-11.924,20.065-8.952ZM330.374,121.606c6.88,2.531,12.399,7.168,20.218,3.527,6.132-10.217.807-16.27-7.978-21.053l-12.24,17.526ZM158.47,106.039c-27.61,3.759-4.211,37.116,8.925,12.248-4.931-5.332-7.329,3.421-7.806,3.441-7.252.303-10.959-6.383-6.19-9.027l3.424.042,1.647-6.703ZM372.309,126.475l-12.889-7.04-8.808,14.182c.667,3.783,15.928,15.874,11.008,4.776l-4.475-5.556c7.651,2.428,7.486,5.448,15.157-.402l.008-5.96ZM135.399,122.138c-8.79.779-14.567,13.837-4.941,19.743,17.039,10.454,23.67-21.404,4.941-19.743ZM348.214,184.152c-44.185-70.178-151.801-70.395-196.429,0h196.429ZM368.978,154.424c16.462,12.161,23.577-13.622,10.521-18.329-3.869-1.395-21.514,10.208-10.521,18.329ZM127.185,152.883c-31.517-20.824-10.242,8.112-1.367,6.401l8.098-13.065-6.732,6.665Z"/>
      <path d="M157.851,231.511c31.768-7.486,30.259,44.938-1.741,34.233-12.655-4.234-12.849-30.795,1.741-34.233Z"/>
      <path d="M330.332,239.952l4.478,15.614-13.371-.002c-.713-.632,4.755-20.722,8.893-15.613Z"/>
      <path d="M256.683,331.457c.648.858-.923,5.598-.01,7.357,1.519,2.928,6.247-.057,4.491,6.024-6.253-.655-7.432,2.057-10.074,6.743l-12.254-6.743,4.481-13.381h13.366Z"/>
      <path d="M229.714,327.08l2.426,11.068-7.809,4.517c-5.456-8.565-10.449-.648-5.383-15.585h10.767Z"/>
      <path d="M281.08,327.051c4.267,10.095-1.782,8.048-4.33,15.561-7.945-7.544-10.865-1.835-6.464-15.533l10.794-.029Z"/>
      <path d="M323.657,400.643l-5.58,2.207c-6.886-.875-1.758-21.176,5.58-2.207Z"/>
      <path d="M145.077,367.2l-.011,3.299-5.557,5.567-3.336-3.336c-.82-4.643,5.326-6.494,8.904-5.531Z"/>
      <polygon points="284.635 402.914 290.155 406.275 286.794 414.05 281.274 410.689 284.635 402.914"/>
      <rect x="214.298" y="409.611" width="6.671" height="4.439"/>
      <path d="M252.184,148.463c.227,5.549,3.792,6.975,8.98,6.698l-4.478,13.391h-13.371l-4.478-13.391c5.188.276,8.753-1.149,8.98-6.698h4.367Z"/>
      <path d="M277.585,161.05c6.774,3.76,7.007-2.385,3.469,11.87l-10.778.007-2.187-10.743,7.612-4.823c1.592-.424.688,3.026,1.884,3.689Z"/>
      <path d="M226.144,161.148c5.485,3.554,7.872-3.739,3.57,11.772h-10.767l-2.426-11.068c4.107.52,7.391.22,6.737-4.457,3.472-.96,1.378,2.776,2.885,3.753Z"/>
      <path d="M140.612,137.264h-8.903c-1.075-11.785,9.945-11.877,8.903,0Z"/>
      <polygon points="264.534 83.729 272.309 87.09 268.948 92.61 261.173 89.249 264.534 83.729"/>
      <path d="M339.298,121.639c-5.863-5.863,10.986-13.642,8.904-3.372-.543,2.677-7.578,4.697-8.904,3.372Z"/>
      <polygon points="370.534 146.249 381.685 145.126 376.116 152.856 370.534 146.249"/>
    </g>
  </g>
</svg>