<?xml version="1.0" encoding="UTF-8"?>
<svg id="Layer_1" xmlns="http://www.w3.org/2000/svg" version="1.1" viewBox="0 0 500 500">
  <!-- Generator: Adobe Illustrator 29.2.1, SVG Export Plug-In . SVG Version: 2.1.0 Build 116)  -->
  <g id="Axskyv">
    <g>
      <path d="M409.935,240.365c-38.011-10.389-77.676,1.504-109.137,23.717-2.42-67.086-78.499-58.664-114.74-83.482-35.946-24.616-15.599-80.298,30.301-73.007,37.52,5.959,20.178,66.083,60.742,55.686,53.785-13.787-18.113-99.807-54.435-94.047,3.437-34.768-36.388-34.936-33.703-.028-75.067,13.273-100.509,110.066-31.315,151.676,23.884,14.363,81.74,22.361,92.112,45.559,20.643,46.17-51.596,77.438-81.515,34.042-10.992-15.944-10.811-41.47-39.001-35.857-26.143,5.206-20.131,34.164-9.857,51.484,15.194,25.615,40.966,38.33,69.448,43.32-1.034,34.561,36.083,33.641,33.856-.158l23.472-4.979,4.78,61.709-43.796,4.826c-189.659-.499-281.628-240.937-134.267-364.459,144.72-121.307,361.205-.804,337.055,183.999Z"/>
      <path d="M369.088,255.253c156.313-18.373,181.377,219.814,27.56,236.443-155.446,16.805-180.844-218.427-27.56-236.443ZM463.735,324.168c-4.15-5.893-16.993-18.679-25.218-13.829l-77.216,77.127c-23.58-19.526-36.751-56.32-61.954-14.268v4.889c1.053,3.807,50.21,54.378,54.697,57.012,4.125,2.421,6.675,3.277,11.482,1.841l99.178-97.972c3.958-4.748,2.246-10.238-.968-14.801Z"/>
    </g>
  </g>
</svg>