<?xml version="1.0" encoding="UTF-8"?>
<svg id="Layer_1" xmlns="http://www.w3.org/2000/svg" version="1.1" viewBox="0 0 500 500">
  <!-- Generator: Adobe Illustrator 29.2.1, SVG Export Plug-In . SVG Version: 2.1.0 Build 116)  -->
  <g id="z9q8Gc">
    <g>
      <path d="M202.911,156.261c3.85-.967,12.961,6.882,17.089,9.064,19.334,10.225,40.717,10.203,60.074-.003,3.669-1.934,13.183-9.621,16.337-9.087,3.518.596,12.27,8.877,15.926,11.399,10.247,7.068,18.798,11.342,30.427,15.761,13.713,5.211,22.223,3.86,27.119,20.583,9.064,30.96,1.827,72.549-15.041,99.716-1.437,2.315-9.408,14.059-10.898,14.883-1.085.6-1.152.139-1.935-.391-1.805-1.224-4.6-5.593-6.77-7.633-48.446-45.549-121.331-45.678-170.016-.37-1.671,1.555-6.792,7.989-7.561,8.38-1.08.55-1.12.278-1.927-.373-1.297-1.048-4.992-6.381-6.262-8.136-20.324-28.093-28.811-71.91-19.454-105.491,5.244-18.822,18.451-17.509,33.902-23.643,8.698-3.453,16.596-8.281,24.267-13.592,3.231-2.237,11.947-10.368,14.722-11.065Z"/>
      <path d="M244.582,297.166c83.973-4.727,137.18,90.691,88.605,159.779-40.362,57.408-125.938,57.405-166.298,0-45.869-65.239-1.445-155.324,77.693-159.779ZM301.261,386.024c2.321-2.426,7.165-7.264,8.74-9.811,10.586-17.123-10.871-34.624-25.897-22.111l-51.206,51.062c-1.418.251-14.253-14.093-16.998-16.159-17.368-13.073-37.498,7.523-24.145,24.903,3.586,4.667,29.12,29.988,33.285,31.832,6.242,2.763,12.884,1.953,18.203-2.265,18.734-19.687,39.247-37.828,58.019-57.45Z"/>
      <path d="M369.675,425.658l3.088-26.876c-.926-7.782-1.172-15.461-2.574-23.233-2.774-15.383-8.979-28.862-16.259-42.507,27.146-30.697,38.537-68.249,36.178-109.159-.949-16.458-5.007-33.609-16.65-45.809,8.333-.752,15.935-5.036,22.949-9.238,4.953-2.967,5.552-7.026,11.814-3.19,8.386,5.137,15.066,12.215,24.546,17.092s19.32,6.236,28.278,10.338c13.647,6.25,12.395,23.96,13.124,36.849.739,13.045,2.858,34.851-1.703,46.772-8.264,21.598-26.788,24.899-47.517,27.443-1.857,2.251-5.099,8.301-4.162,10.931,1.072,3.009,8.295,10.924,10.527,14.497,10.674,17.087,9.802,34.162-3.321,49.547-7.958,9.33-36.926,38.812-46.694,43.409-3.554,1.673-7.632,3.234-11.624,3.133Z"/>
      <path d="M126.619,178.075c-3.127,4.041-6.655,7.981-8.977,12.594-10.385,20.628-9.145,56.886-4.281,79.024,5.253,23.909,17.074,44.846,32.787,63.332-3.22,7.191-7.431,13.864-10.265,21.261-6.667,17.401-9.35,37.291-7.741,55.845.403,4.652,1.976,9.938,2.271,14.401.159,2.401-4.855.552-6.224.153-5.929-1.729-11.121-5.265-15.752-9.234-9.538-8.174-34.269-32.164-40.595-41.936-14.097-21.776-2.944-40.984,11.452-58.435,1.047-1.965-2.844-10.303-4.165-10.939-20.892-2.515-39.673-6.148-47.714-28.003-3.629-9.864-2.737-30.597-2.287-41.692.366-9.027,1.52-28.626,6.517-35.885,4.638-6.736,18.662-8.643,26.274-11.585,14.822-5.729,21.614-13.76,33.938-21.33,6.253-3.841,6.869.228,11.814,3.19,7.014,4.203,14.616,8.486,22.949,9.238Z"/>
      <path d="M243.067.354c82.278-8.04,87.792,123.438,23.382,152.101-32.155,14.309-60.898-16.558-70.941-44.412-14.361-39.829-2.603-102.787,47.559-107.689Z"/>
      <path d="M134.033,22.318c11.923-.546,25.187,2.918,34.59,10.39,1.578,1.254,8.294,7.835,8.913,9.263,1.333,3.077-2.135,15.303-2.451,19.877-1.411,20.457,1.746,42.126,10.427,60.688-8.158,22.922-33.054,48.523-59.484,39.841-56.812-18.661-61.298-136.888,8.005-140.061Z"/>
      <path d="M360.43,22.315c66.472-2.594,71.663,93.976,31.597,129.27-31.95,28.145-63.842,3.966-77.457-28.542,8.466-19.081,11.859-40.323,10.419-61.194-.447-6.478-2.906-13.009-2.701-19.346,8.806-12.288,23.027-19.598,38.141-20.188Z"/>
    </g>
  </g>
</svg>