<?xml version="1.0" encoding="UTF-8"?>
<svg id="Layer_1" xmlns="http://www.w3.org/2000/svg" version="1.1" viewBox="0 0 500 500">
  <!-- Generator: Adobe Illustrator 29.2.1, SVG Export Plug-In . SVG Version: 2.1.0 Build 116)  -->
  <g id="yqnTif">
    <g>
      <path d="M244.778.378c25.964-4.105,41.976,26.448,63.954,31.011,19.885,4.129,43.779-6.588,62.163.315,21.609,8.114,23.548,41.43,38.331,57.222,14.805,15.815,48.734,18.359,58.102,37.452,8.727,17.784-2.903,44.767,1.273,64.879,4.065,19.576,30.964,36.282,31.393,58.099.441,22.414-27.229,39.31-31.393,59.363-4.129,19.886,6.587,43.776-.315,62.162-7.846,20.9-39.444,23.715-55.387,36.492-18.779,15.049-18.911,54.047-43.798,61.556-18.427,5.56-40.905-4.383-60.369-.341-20.113,4.176-36.492,31.487-59.343,31.412-21.265-.07-38.512-27.34-58.12-31.412-19.759-4.103-44.054,6.483-62.163-.315-21.776-8.175-23.549-42.107-38.939-57.84-16.054-16.411-51.949-17.633-59.109-41.345-5.562-18.418,4.382-40.907.341-60.368C27.285,288.907.437,272.484.005,250.621c-.452-22.91,27.185-39.094,31.393-59.363,4.102-19.757-6.483-44.057.315-62.162,8.089-21.54,41.56-23.673,57.223-38.331,15.67-14.666,18.381-48.744,37.452-58.102,17.785-8.726,44.768,2.903,64.88-1.273,18.232-3.786,34.617-28.024,53.51-31.011ZM238.722,54.342C86.132,63.097.651,237.509,89.744,363.079c88.332,124.497,279.904,104.66,340.165-35.474,57.506-133.729-46.472-281.567-191.187-273.263Z"/>
      <path d="M228.921,67.817c164.285-14.978,266.772,169.418,163.151,297.905-85.746,106.322-256.114,82.346-310.118-42.63-47.897-110.845,25.684-244.217,146.967-255.275ZM198.053,320.282c1.132,1.02,1.629,2.788,2.872,3.86,10.883,9.384,21.877,13.229,34.402,3.664l123.696-123.763c14.425-22.689-9.904-47.373-32.988-32.988-31.499,26.698-59.787,65.613-91.321,91.211-8.63,7.005-15.801,8.836-25.552,2.222-13.455-9.127-30.775-37.805-46.932-38.918-9.534-.657-20.659,5.92-23.982,14.96-5.596,15.226,3.477,23.777,13.074,34,13.861,14.762,31.675,32.187,46.731,45.752Z"/>
    </g>
  </g>
</svg>