<?xml version="1.0" encoding="UTF-8"?>
<svg id="Layer_1" xmlns="http://www.w3.org/2000/svg" version="1.1" viewBox="0 0 160 160">
  <!-- Generator: Adobe Illustrator 29.2.1, SVG Export Plug-In . SVG Version: 2.1.0 Build 116)  -->
  <path d="M121.721,15.34c4.913,4.751.182,10.283,3.585,16.169,3.003,5.196,9.779,3.609,11.698,10.208,2.009,6.906-5.006,9.164-5.006,15.538,0,6.461,7.475,8.784,4.808,16.12-2.1,5.778-9.001,4.666-11.897,10.011-3.105,5.73,2.267,11.262-3.823,16.129-4.474,3.575-8.633.43-13.306,1.95-7.941,2.583-5.585,13.943-15.454,13.106-5.392-.457-6.281-5.782-13.71-5.106-5.721.521-7.841,7.302-15.041,4.51-5.309-2.059-4.417-8.667-9.514-11.611-5.442-3.142-9.973.831-14.721-2.492-6.502-4.552-1.41-10.337-4-15.951-2.935-6.363-9.991-4.25-12.182-10.898-2.411-7.314,4.924-9.424,4.84-15.774-.088-6.65-7.244-8.754-4.913-15.834,2.015-6.122,9.259-5.108,12.084-10.606,2.707-5.268-1.8-10.688,3.112-15.47,4.822-4.695,10.426-.274,15.788-3.185C59.87,9.005,58.031-.072,66.896-.077c6.522-.003,8.046,7.282,16.341,4.626,4.794-1.535,5.617-5.748,12.044-4.432,6.35,1.3,5.566,9.504,11.198,12.274,5.213,2.565,10.359-1.774,15.243,2.949ZM74.835,18.055c-19.898,2.026-35.173,21.053-34.341,40.763,1.36,32.206,39.818,49.723,64.728,28.745,30.06-25.315,9.473-73.566-30.388-69.508Z"/>
  <path d="M62.496,158.67c-1.558-2.596-7.361-21.748-8.705-22.391-.312-.15-.625-.238-.975-.229l-21.705,7.697c-.946.257-1.932-.526-2.205-1.394-.593-1.892,14.618-31.334,16.146-35.626,2.525.259,4.528-1.215,6.765.62,1.447,1.186,2.484,4.852,3.601,6.571,3.858,5.938,12.097,7.731,18.278,4.322,4.307-2.375,5.802-6.17,10.966-1.089l-18.665,40.335c-.895,1.497-1.806,2.259-3.502,1.184Z"/>
  <path d="M114.758,106.806c1.282,4.565,16.964,34.324,16.337,36.33-.287.92-1.314,1.625-2.292,1.481l-20.62-7.577c-.665-.228-1.311-.304-1.972.016-1.299.629-7.062,19.448-8.429,22.092-.536.962-1.683.944-2.657.741-.635-.214-1.411-2.228-1.766-2.932-2.927-5.81-6.197-12.68-8.734-18.651-.323-.76-1.338-2.759-1.431-3.296-.435-2.503,5.85-12.204,6.633-15.311,4.516,1.073,10.832-.726,13.806-4.382,1.661-2.043,2.913-6.626,4.55-7.969,2.13-1.747,4.153-.522,6.574-.541Z"/>
  <path d="M63.432,54.069c3.606,3.224,7.257,8.48,11.081,11.415.293.225.462.637.935.546l23.751-23.61c3.861-2.033,8.642.229,8.941,4.721.136,2.048-1.076,3.546-2.311,5.038-7.503,9.068-18.403,17.188-26.216,26.205-2.727,2.393-5.553,2.356-8.405.182-2.312-1.763-16.146-15.555-17.243-17.574-3.46-6.368,4.035-11.78,9.466-6.923Z"/>
</svg>