 
<svg id="Layer_1" xmlns="http://www.w3.org/2000/svg" version="1.1" viewBox="0 0 500 400">
 
  <g>
    <path d="M238.576,331.193c-1.268,4.497-58.627,64.717-64.567,66.197-51.365,12.798-100.136-22.946-108.599-74.928,32.166,14.305,70.326,15.574,96.157-11.602,51.347-54.022-1.036-118.603-48.002-151.241-8.129-5.649-40.325-21.146-43.37-25.655-5.372-7.954-1.544-28.676,6.689-32.055,9.383-3.851,60.42,26.78,71.334,33.99,25.947,17.139,50.38,36.676,63.692,66.084-4.654-34.07-34.792-60.37-62.202-77.319-19.092-11.806-40.223-17.548-58.812-27.383-1.401-.741-6.179-.946-2.657-4.057,3.004-2.654,45.418-19.798,50.23-19.418,14.398,1.137,41.257,22.796,56.335,27.138l-18.026-13.631-32.434-17.451c13.71-5.961,28.159-10.686,42.44-14.969,14.137-4.24,55.42-16.607,67.836-15.929,23.218,1.267,68.256,37.56,88.621,50.323-20.564-23.007-48.921-35.958-75.192-50.481l19.26-3.663c105.333,28.248,270.173,157.414,192.601,284.035-1.748,2.853-13.68,19.397-15.756,18.765l-122.011-120.331-58.848,63.994c-3.628-3.266.698-31.041-.952-31.041h-43.77v80.628Z"/>
    <path d="M307.086,25.171c-62.836-4-134.509,16.307-192.137,41.867-14.574,6.464-52.915,23.39-58.088,37.836-15.028,41.971,16.135,38.716,40.888,54.353-33.204-3.74-71.605-13.377-58.433-56.717,7.923-26.069,55.153-36.917,76.661-49.924,1.708-1.033,3.731.996,2.707-4.056l-22.825-5.829,12.544,5.608c3.035-.837,3.704,2.91,2.657,4.051-1.228,1.338-30.246,12.69-33.834,12.291-4.907-.546-68.791-25.235-71.8-27.774C-.725,31.687-1.546,14.612,2.454,8.534,5.786,3.473,32.829-.476,39.478.047c31.665,2.49,92.717,36.622,120.18,37.859,6.841.308,42.344-11.917,53.827-14.042,26.667-4.934,72.168-17.721,93.601,1.307ZM52.065,9.663c-4.871,1.686-21.77-4.111-20.922,3.849,1.472,1.165,21.842,4.068,20.922-3.849Z"/>
    <path d="M378.614,307.407v16.333c0,3.314-2.631,6-5.877,6h-15.998c-3.246,0-5.877-2.686-5.877-6v-16.333c0-3.314,2.631-6,5.877-6h15.998c3.246,0,5.877,2.686,5.877,6Z"/>
    <path d="M126.295,314.656c-9.462.918-32.289-1.014-27.141-14.975,6.049-16.403,22.922,7.561,27.141,14.975Z"/>
  </g>
  <path d="M343.625,307.407v16.333c0,3.314-2.631,6-5.877,6h-15.998c-3.246,0-5.877-2.686-5.877-6v-16.333c0-3.314,2.631-6,5.877-6h15.998c3.246,0,5.877,2.686,5.877,6Z"/>
  <path d="M378.614,342.369v16.333c0,3.314-2.631,6-5.877,6h-15.998c-3.246,0-5.877-2.686-5.877-6v-16.333c0-3.314,2.631-6,5.877-6h15.998c3.246,0,5.877,2.686,5.877,6Z"/>
  <path d="M343.625,342.369v16.333c0,3.314-2.631,6-5.877,6h-15.998c-3.246,0-5.877-2.686-5.877-6v-16.333c0-3.314,2.631-6,5.877-6h15.998c3.246,0,5.877,2.686,5.877,6Z"/>
</svg>