<?xml version="1.0" encoding="UTF-8"?>
<svg id="Layer_1" xmlns="http://www.w3.org/2000/svg" version="1.1" viewBox="0 0 500 500">
  <!-- Generator: Adobe Illustrator 29.2.1, SVG Export Plug-In . SVG Version: 2.1.0 Build 116)  -->
  <g id="M29GH6">
    <g>
      <path d="M408.813,233.942h-153.551v153.183l-9.806,8.041c-65.491-25.076-15.67,45.593-32.433,70.183-8.842,10.736-24.766,3.518-26.859-10.252-3.99-26.241,21.402-79.336-26.2-72.647-3.727,2.602-1.444,20.398-2.529,26.838-4.225,25.075-39.813,27.144-42.615.303-1.081-10.352,3.346-19.455,4.185-29.283,1.863-36.415-3.669-75.328-37.874-33.844-5.995,0-5.373-4.49-5.373-5.244v-94.797L249.856,72.849l158.958,161.092ZM244.449,233.942h-62.718v65.812h62.718v-65.812ZM86.127,331.784c4.996-17.825,4.996-16.776,1.998-24.116-5.917-14.488-2.998-37.747-2.998-37.747-3.153,8.255-11.174,60.414.999,61.863ZM246.611,376.913v-64.678l-3.244-3.405h-59.474v68.081h62.718ZM132.091,420.908c8.993-1.049,4.996-5.606.999-12.582-6.995-13.631-11.991-16.776-11.991-16.776,0,0,.999,5.243.17,18.036.179,2.74,1.829,12.371,10.822,11.323ZM199.032,460.752c9-2.097-6.466-18.013-6.466-18.013-2.527,8.133-2.535,20.11,6.466,18.013Z"/>
      <path d="M250.321.599c1.968-.457,3.907-.785,5.929-.481l241.342,248.448c8.112,13.286-5.836,28.141-18.614,19.532L253.908,34.376,19.659,262.428c-16.62,5.633-26.333-10.43-14.286-24.05,2.845-3.217,6.921-4.784,9.871-7.798C83.14,161.246,152.939,93.219,222.862,26.336c6.58-6.293,20.001-24.005,27.46-25.738h0Z"/>
      <path d="M440.763,257.145c3.503,3.552,3.756,43.632,2.621,50.518-.729,4.427-4.273,7.809-7.963,9.799l-157.515,2.789c-5.482-1.039-13.587-2.91-15.196-8.949-2.003-7.522-1.988-36.083-.842-44.33.875-6.297,4.099-10.603,10.066-12.131,46.712-1.475,93.495.284,140.219-.367,8.097-.113,20.899-5.148,28.61,2.671h0Z"/>
      <path d="M371.775,384.013l2.022,109.34-2.641,4.037c-6.702,3.052-29.281,4.71-32.647-2.455l-.654-107.379,2.641-4.037c4.456-3.659,29.159-2.757,31.278.493h.001Z"/>
      <path d="M469.368,354.219c-2.165-.817-4.735,2.269-5.407,2.269h-102.728l-.289,16.72-12.686,3.715-.015-28.392,3.548-5.355,104.601-2.574v-45.387l-8.669.012.009-11.369c7.127.884,16.522-2.829,21.636,3.414v66.947h0Z"/>
    </g>
  </g>
</svg>