<?xml version="1.0" encoding="UTF-8"?>
<svg id="Layer_1" xmlns="http://www.w3.org/2000/svg" version="1.1" viewBox="0 0 350 500">
  <!-- Generator: Adobe Illustrator 29.2.1, SVG Export Plug-In . SVG Version: 2.1.0 Build 116)  -->
  <defs>
    <style>
      .st0 {
        fill: #f4f4f4;
      }

      .st1 {
        fill: #3a3a3a;
      }

      .st2 {
        fill: #878787;
      }

      .st3 {
        fill: #848484;
      }

      .st4 {
        fill: #858585;
      }

      .st5 {
        fill: #b9b9b9;
      }
    </style>
  </defs>
  <g id="uv2q4B">
    <g>
      <path class="st1" d="M344.138,263.244c1.223,2.487,1.662,6.772,1.886,9.63,4.882,62.475-1.234,134.212-.162,198.043.067,3.966,2.582,8.597,1.66,11.923-3.934,14.189-74.316,15.939-88.418,17.159v-115.728l-84.449-48.261-85.619,48.261v115.728c-16.954-2.461-74.007-1.683-84.27-13.995-2.605-3.126-2.961-4.923-2.574-8.974.061-.642,1.873-2.648,1.942-5.975,1.423-69.205-1.353-138.613-.114-207.812,27.374,31.492,60.617,35.257,98.912,19.753,26.528-10.74,41.549-26.603,63.051-42.67,21.702-16.216,57.655-41.941,67.331-.485,8.453,36.217,6.531,76.365,17.657,113.502,2.622,8.75,10.846,34.698,24.517,22.179,7.564-6.927,23.319-63.762,28.816-77.857,3.281-8.413,18.603-46.934,28.104-46.891,1.778.008,11.113,11.212,11.73,12.468Z"/>
      <path class="st3" d="M107.128,151.933c-.587.915-.926,2.225-1.809,3.534-21.15,2.857-42.835,2.597-63.996,5.527-19.548,2.707-54.132,8.28-10.843,15.437,71.999,11.902,185.499,11.322,258.462,3.757,6.387-.662,48.074-6.644,49.762-8.837.834-3.969-2.968-4.945-5.716-5.877-21.755-7.376-56.058-5.84-79.311-8.239.494-1.001,2.146-2.948,1.804-3.482l-3.614-1.818,37.994,1.767c9.55,3.336,55.568,4.753,57.824,15.19.624,2.888-3.881,4.197-5.356,6.012l-39.794,8.816,43.413-5.283-.018,74.198c-3.562-1.509-2.848-5.424-7.668-7.488-5.896-2.525-9.071-2.067-14.131,1.218-21.795,14.147-38.153,89.648-49.178,114.514-2.613,5.894-5.395,15.25-10.787,6.085-15.113-25.686-16.255-87.638-21.561-118.524-5.547-32.291-17.477-48.314-52.629-32.387-27.814,12.603-47.809,38.713-75.832,53.157-34.169,17.611-72.864,25.189-100.211-7.711-1.491-1.794-9.929-12.451-9.929-13.273v-71.557l16.274,3.515-17.827-7.269.575-6.926c2.288-3.315,33.13-9.699,38.971-10.522,20.668-2.912,44.21-2.894,65.133-3.534ZM139.694,234.992c-12.426,2.842-23.08,9.946-35.247,14.149-19.915,6.88-38.39,10.425-59.715,8.779-5.432-.419-10.394-3.695-15.394-2.635,25.345,21.018,60.63,10.215,86.912-3.451,7.671-3.989,18.243-10.276,23.443-16.842Z"/>
      <path class="st1" d="M260.766,146.507l-112.176-61.066,17.701-28.599c14.266-4.26,28.258,21.391,47.508,9.328,10.208-6.397,9.774-33.855,21.037-48.364,30.105-38.783,60.579-7.871,34.803,32.221-9.418,14.649-31.241,21.118-25.952,40.117,3.733,13.41,26.991,16.143,29.546,24.132,3.628,11.345-9.653,21.762-12.466,32.23ZM254.963,17.902c-7.769,2.114-6.577,16.051,2.946,15.246,10.827-.916,7.943-18.208-2.946-15.246Z"/>
      <path class="st1" d="M251.867,151.933l3.614,1.818c.342.534-1.31,2.481-1.804,3.482-1.383,2.802-4.703,4.742-3.62,8.817l12.657,1.802.01,1.749H85.417c2.377-3.817,10.547-1.917,14.398-4.485,2.612-1.742,3.649-6.902,5.504-9.65.883-1.308,1.223-2.619,1.809-3.534,12.725-19.844,24.264-40.331,37.192-60.064l107.547,60.064Z"/>
      <rect class="st2" x="179.497" y="404.591" width="25.329" height="22.969"/>
      <rect class="st4" x="145.112" y="404.582" width="23.539" height="22.987"/>
      <rect class="st4" x="145.112" y="439.918" width="23.539" height="22.987"/>
      <polygon class="st5" points="342.329 174.902 345.947 178.436 302.535 183.718 342.329 174.902"/>
      <path class="st0" d="M254.963,17.902c10.889-2.962,13.772,14.331,2.946,15.246-9.522.805-10.715-13.132-2.946-15.246Z"/>
    </g>
  </g>
  <rect class="st2" x="179.497" y="439.928" width="25.329" height="22.969"/>
</svg>